<?xml version="1.0" encoding="utf-8"?>
<!-- Svg Vector Icons : http://www.onlinewebfonts.com/icon -->
<!DOCTYPE svg PUBLIC "-//W3C//DTD SVG 1.1//EN" "http://www.w3.org/Graphics/SVG/1.1/DTD/svg11.dtd">
<svg version="1.1" xmlns="http://www.w3.org/2000/svg" xmlns:xlink="http://www.w3.org/1999/xlink" x="0px" y="0px" viewBox="0 0 1000 1000" enable-background="new 0 0 1000 1000" xml:space="preserve">
<metadata> Svg Vector Icons : http://www.onlinewebfonts.com/icon </metadata>
<g><g transform="translate(0.000000,511.000000) scale(0.100000,-0.100000)"><path d="M3999.3,3960.6l-53.8-7.7v-207.4V3538l-103.7-28.8l-103.7-28.8L3636.2,3661c-57.6,98-109.5,178.6-117.2,178.6c-76.8,0-628.1-322.7-630-370.7c0-9.6,44.2-88.4,96-178.6c53.8-90.3,96-169,96-174.8c0-7.7-30.7-46.1-69.2-84.5l-69.2-71.1l-178.6,103.7c-99.9,57.6-184.4,103.7-188.2,103.7c-40.3,0-359.2-557-359.2-626.2c0-13.4,78.8-69.2,174.8-122.9c159.4-92.2,172.9-103.7,161.3-147.9c-5.8-26.9-17.3-73-23.1-103.7l-9.6-55.7h-209.4h-209.4L2090,2059c-19.2-74.9-19.2-455.2-1.9-585.8l15.4-111.4h211.3c115.2,0,209.4-1.9,209.4-3.8c0-3.8,13.4-46.1,28.8-96l26.9-90.3l-176.7-99.9c-98-55.7-178.6-101.8-182.5-105.6c-15.4-11.5,121-274.7,215.1-416.8c172.9-259.3,134.5-245.9,343.8-122.9L2962,531.9l69.2-71.1l69.2-69.2l-96-167.1c-53.8-92.2-96-176.7-96-186.3c0-46.1,549.4-366.9,626.2-366.9c9.6,0,63.4,80.7,119.1,178.6l99.9,180.6l92.2-23.1l90.3-23l5.8-213.2l5.8-211.3l180.6-13.5c167.1-13.4,418.7-1.9,524.4,23.1c40.3,9.6,42.3,17.3,42.3,217.1V-5.9l80.7,19.2c44.2,11.5,86.4,17.3,94.1,13.4c5.8-5.8,53.8-82.6,105.6-172.9c51.9-90.3,105.6-163.3,119.1-163.3c73,0,618.5,322.7,618.5,365c0,9.6-42.3,90.3-96,182.5c-51.9,92.2-96,172.9-96,180.6c0,19.2,103.7,117.2,122.9,117.2c9.6,0,94.1-44.2,188.3-99.9l172.9-99.9l55.7,67.2c74.9,90.3,217.1,332.3,274.7,462.9l49.9,111.4l-44.2,26.9c-23.1,13.4-105.6,63.4-182.5,107.6c-109.5,61.5-138.3,88.4-128.7,111.4c7.7,19.2,17.3,55.7,23.1,86.4l11.5,51.9h207.4c115.2,0,213.2,7.7,219,19.2c19.2,32.7,34.6,464.8,21.1,601.2l-15.4,128.7h-207.4h-209.4l-21.1,78.8c-11.5,44.2-17.3,88.4-13.4,101.8c3.8,11.5,82.6,63.4,174.8,113.3c90.3,51.9,165.2,101.8,165.2,113.3c0,69.1-288.1,583.9-347.7,620.4c-9.6,7.7-96.1-32.7-192.1-88.4l-174.8-98l-65.3,63.4c-36.5,34.6-65.3,71.1-65.3,80.7c0,7.7,44.2,90.3,96,180.6c80.7,136.4,94.1,169,73,192.1c-65.3,78.7-532.1,351.5-601.2,351.5c-11.5,0-65.3-78.8-121-174.8c-67.2-115.2-111.4-170.9-128.7-163.3c-13.4,3.8-57.6,15.4-94.1,23.1l-69.2,11.5v209.4c0,138.3-7.7,211.3-23.1,220.9C4646.6,3964.4,4078,3976,3999.3,3960.6z M4592.8,2973.3c136.4-32.6,386.1-157.5,495.6-247.8c201.7-169,359.2-413,422.6-662.7c61.5-236.3,32.7-574.3-67.2-806.7c-144.1-334.2-487.9-618.5-864.4-712.6c-167.1-42.3-497.5-28.8-672.3,28.8c-372.6,119.1-670.4,416.8-797.1,799.1c-240.1,710.7,211.3,1469.4,960.4,1615.4C4216.3,3015.6,4443,3009.8,4592.8,2973.3z"/><path d="M6511.7,702.9c-63.4-130.6-209.4-365-297.7-474.4l-38.4-48l1300.4-9.6l1300.4-9.6l5.8-1454l3.8-1456h336.1h336.2v1619.2c0,1125.6-5.8,1640.4-21.1,1694.2c-28.8,99.9-157.5,228.6-257.4,257.4c-51.9,13.5-474.4,21.1-1338.8,21.1H6577L6511.7,702.9z"/><path d="M1181.4,495.4C1052.7,462.8,756.9,334.1,756.9,311c0-5.8,26.9-82.6,57.6-172.9c32.7-88.3,57.6-170.9,57.6-180.6c0-9.6-21.1-30.7-46.1-46.1c-44.2-28.8-53.8-26.9-201.7,46.1C539.9,1.8,461.1,36.4,451.5,36.4c-28.8,0-192.1-257.4-242-382.3c-26.9-63.4-51.9-147.9-59.6-188.2l-11.5-73l165.2-80.7c151.7-74.9,165.2-86.4,165.2-138.3c0-53.8-7.7-59.5-184.4-117.2L100-1004.7l13.4-99.9c17.3-126.8,105.6-388,171-497.5l49.9-88.4l167.1,57.6c92.2,30.7,176.7,55.7,188.2,55.7c11.5,0,32.7-21.1,46.1-44.2c21.1-40.4,15.4-63.4-55.7-205.5l-80.7-161.4l63.4-53.8c121-99.9,480.2-265.1,578.2-265.1c7.7,0,49.9,74.9,92.2,165.2c74.9,161.3,76.8,163.3,138.3,157.5c61.5-5.8,65.3-11.5,121-172.9l57.6-169h67.2c38.4,0,130.6,17.3,207.4,38.4c146,40.3,407.2,161.3,407.2,188.2c0,9.6-25,90.3-55.7,180.6l-55.7,165.2l44.2,42.3l42.3,40.3l167.1-82.6l167.1-82.6l55.7,67.2c76.8,92.2,180.6,292,228.6,439.9c23.1,67.2,40.3,126.8,40.3,130.6c0,1.9-78.8,44.2-174.8,92.2c-167.1,84.5-174.8,90.3-161.3,140.2c7.7,28.8,15.4,53.8,17.3,57.6c3.8,1.9,78.8,28.8,167.1,59.5l161.3,53.8l-3.8,103.7c-7.7,172.9-165.2,574.3-226.7,574.3c-11.5,0-94.1-25-184.4-55.7l-161.3-53.8l-32.7,44.2c-32.7,40.4-30.7,48,44.2,211.3l78.8,169l-65.3,53.8c-88.3,74.9-330.4,197.8-461,234.3c-59.5,17.3-111.4,30.7-115.2,30.7c-3.8,0-44.2-76.8-90.3-169c-82.6-167.1-84.5-171-142.1-159.4c-53.8,11.5-63.4,25-115.2,180.6c-53.8,163.3-55.7,167.1-115.2,165.2C1350.5,533.9,1260.2,516.6,1181.4,495.4z M1861.4-249.8c359.2-176.7,510.9-620.4,332.3-970c-63.4-124.9-215.1-270.8-347.7-330.4c-103.7-49.9-140.2-55.7-301.6-55.7c-157.5,0-197.8,7.7-292,51.9c-512.9,240.1-576.2,931.6-115.2,1248.5C1350.5-159.5,1632.8-138.4,1861.4-249.8z"/><path d="M3273.2-1613.6v-1135.2h336.1h336.1v1043v1043l-130.6,23.1c-73,11.5-209.4,48-303.5,80.7c-94.1,34.6-186.3,65.3-203.6,71.1C3275.1-478.4,3273.2-539.9,3273.2-1613.6z"/><path d="M2831.4-3269.3c0-228.6,5.8-303.5,30.7-355.4c63.4-132.6-207.5-122.9,3503.6-122.9c3695.6,0,3442.1-7.7,3505.5,115.3c21.1,42.3,28.8,124.8,28.8,355.4v297.7H8480.5H7059.1l-5.8-99.9l-5.8-101.8l-632-5.8c-449.5-3.8-639.6,1.9-656.9,17.3c-15.3,13.4-26.9,57.6-26.9,105.6v84.5H4281.6H2831.4V-3269.3z M9435.2-3271.3c13.5-13.5,23.1-53.8,23.1-92.2c0-97.9-26.9-115.2-176.7-115.2c-138.3,0-169,21.1-169,115.2c0,94.1,30.7,115.3,169,115.3C9358.3-3248.2,9421.7-3257.8,9435.2-3271.3z"/></g></g>
</svg>